# xmcd
#
# Track frame offsets: 
#        150
#        12740
#        27072
#        42670
#        55147
#        70517
#        99890
#        114382
#        125310
#        140802
#        159407
#        177450
#        204472
#        226850
#        241107
#        273142
#        285560
#        308355
#        321090
#        335467
#
# Disc length: 4656 seconds
#
# Revision: 0
# Processed by: cddbd v1.5PL3 Copyright (c) Steve Scherf et al.
# Submitted via: ExactAudioCopy v0.90b4
#
DISCID=0b122e14
DTITLE=Charles Aznavour - SUPER NOW Charles Aznavour
DYEAR=1997
DGENRE=Chanson
TTITLE0=J'ai Bu
TTITLE1=Viens Pleurer Au Creux De Mon Epaule
TTITLE2=Sa Jeunesse...Entre Ses Mains
TTITLE3=Apres L'amour
TTITLE4=Je M'voyais Deja
TTITLE5=Non, Je N7Ai Rien Oublie
TTITLE6=Il Faut Savoir
TTITLE7=Hier Encore
TTITLE8=Paris Au Mois D'aout
TTITLE9=La Boheme
TTITLE10=Mourir D'aimer
TTITLE11=Les Plaisirs Demodes
TTITLE12=Comme "Ils Disent"
TTITLE13=Mes Emmerdes
TTITLE14=Autobiographie
TTITLE15=Mon Emouvant Amour
TTITLE16=Embrasse-Moi
TTITLE17=Chanson Souvenir
TTITLE18=Toi Et Moi
TTITLE19=Plus Bleu Que Tes Yeux
EXTD=
EXTT0=
EXTT1=
EXTT2=
EXTT3=
EXTT4=
EXTT5=
EXTT6=
EXTT7=
EXTT8=
EXTT9=
EXTT10=
EXTT11=
EXTT12=
EXTT13=
EXTT14=
EXTT15=
EXTT16=
EXTT17=
EXTT18=
EXTT19=
PLAYORDER=
